# xmcd CD database file
#
# Track frame offsets:
#	150
#	12920
#	26991
#	39625
#	53660
#	68778
#	85012
#	111068
#	123643
#	137053
#	148542
#	161426
#	174510
#	197673
#	210086
#	258159
#
# Disc length: 3607 seconds
#
# Revision: 0
# Processed by: cddbd v1.5.2PL0 Copyright (c) Steve Scherf et al.
# Submitted via: CDex 1.70beta2
#
DISCID=d50e1510
DTITLE=Thelonious Monk - Monk's Dream
DYEAR=1900
DGENRE=Jazz
TTITLE0=Trinkle Tinkle
TTITLE1=Monk's Dream
TTITLE2=Reflections
TTITLE3=Little Rootie Tootie
TTITLE4=April In Paris
TTITLE5=Sweet And Lovely
TTITLE6=Think Of One
TTITLE7=These Foolish Things
TTITLE8=Well You Needn't
TTITLE9=Evidence
TTITLE10=Humph
TTITLE11=In Walked Bud
TTITLE12=Let's Call This
TTITLE13=I Mean You
TTITLE14=Friday The 13th
TTITLE15=Bye Ya
EXTD=
EXTT0=
EXTT1=
EXTT2=
EXTT3=
EXTT4=
EXTT5=
EXTT6=
EXTT7=
EXTT8=
EXTT9=
EXTT10=
EXTT11=
EXTT12=
EXTT13=
EXTT14=
EXTT15=
PLAYORDER=
